<svg width="225" height="232" viewBox="0 0 225 232" fill="none" xmlns="http://www.w3.org/2000/svg">
<mask id="mask0" mask-type="alpha" maskUnits="userSpaceOnUse" x="35" y="0" width="190" height="131">
<path d="M35.4065 0.909302H224.242V130.909H35.4065V0.909302Z" fill="white"/>
</mask>
<g mask="url(#mask0)">
<path fill-rule="evenodd" clip-rule="evenodd" d="M208.687 124.031L197.92 130.909L175.867 91.1732C163.651 69.1356 140.336 55.4455 115.031 55.4455H35.4065L113.379 5.69699C125.375 -1.95535 141.114 -0.295938 151.233 9.68292L214.245 71.8546C229.6 87.0079 226.895 112.409 208.687 124.031Z" fill="#67C462"/>
</g>
<mask id="mask1" mask-type="alpha" maskUnits="userSpaceOnUse" x="0" y="71" width="207" height="161">
<path d="M0 71.8183H206.539V231.364H0V71.8183Z" fill="white"/>
</mask>
<g mask="url(#mask1)">
<path fill-rule="evenodd" clip-rule="evenodd" d="M175.186 231.364H82.4718C73.1776 231.364 64.7257 225.855 60.815 217.261L1.78594 87.7085L0.904491 85.7564C-0.339577 83.0132 -0.239159 80.1163 0.831967 77.6633C0.904491 77.4869 0.988173 77.3275 1.07743 77.1454C2.10393 75.1079 3.81103 73.4403 5.97002 72.5582C7.08578 72.0858 8.31311 71.8183 9.61854 71.8183H110.728C129.975 71.8183 147.699 82.4953 156.988 99.6831L179.325 140.974L202.6 183.989C214.109 205.28 199.024 231.364 175.186 231.364Z" fill="#74DF70"/>
</g>
</svg>
