<svg width="1226" height="959" viewBox="0 0 1226 959" fill="none" xmlns="http://www.w3.org/2000/svg">
<path d="M277.344 958.496C219.727 942.22 176.27 915.365 146.973 877.93C118.001 840.82 103.516 791.667 103.516 730.469V633.301C103.516 554.199 69.0104 514.648 0 514.648V443.848C69.0104 443.848 103.516 404.46 103.516 325.684V224.121C104.167 164.551 118.652 116.536 146.973 80.0781C175.618 43.2943 219.076 16.6016 277.344 0L295.898 56.1523C227.865 77.9622 193.848 134.766 193.848 226.562V325.195C193.848 399.089 166.667 450.521 112.305 479.492C166.667 508.789 193.848 560.71 193.848 635.254V735.84C194.824 825.358 228.841 880.859 295.898 902.344L277.344 958.496Z" fill="#42526E"/>
<path d="M494.043 840.82H416.406L713.281 68.8477H790.43L494.043 840.82Z" fill="#42526E"/>
<path d="M929.004 902.344C995.085 881.185 1029.26 827.311 1031.54 740.723V633.301C1031.54 558.105 1061 506.836 1119.92 479.492C1061 452.799 1031.54 401.53 1031.54 325.684V226.562C1031.54 134.766 997.526 77.9622 929.492 56.1523L948.047 0C1005.66 16.276 1048.96 42.806 1077.93 79.5898C1106.9 116.048 1121.55 164.388 1121.88 224.609V327.148C1121.88 404.948 1156.38 443.848 1225.39 443.848V514.648C1156.38 514.648 1121.88 554.199 1121.88 633.301V731.934C1121.88 793.132 1107.06 842.122 1077.44 878.906C1048.14 915.69 1005.01 942.22 948.047 958.496L929.004 902.344Z" fill="#42526E"/>
</svg>
