<svg width="958" height="958" viewBox="0 0 958 958" fill="none" xmlns="http://www.w3.org/2000/svg">
<path d="M166.25 175.531V88.125C166.305 45 201.25 10.0547 244.375 10H869.375C912.5 10.0547 947.445 45 947.5 88.125V431.875C947.379 471.777 917.133 505.148 877.438 509.195L843.625 510C843.625 510 843.625 510 789.547 510L351.5 518C376.844 584.199 369.07 705.648 331.477 765.738L322.5 780.094V931.875C322.5 940.508 315.508 947.5 306.875 947.5H25.625C16.9922 947.5 10 940.508 10 931.875V416.113C10.1484 362.078 31.6602 310.305 69.8633 272.09L166.25 175.531ZM166.25 268.977L118.828 392.078C109.535 416.242 121.578 443.355 145.738 452.656L172.844 463.125C168.516 453.273 166.273 442.625 166.25 431.875V268.977ZM916.25 431.875V88.125C916.25 62.2422 895.258 41.25 869.375 41.25H244.375C218.492 41.25 197.5 62.2422 197.5 88.125V187.438H197.637L197.5 187.793V431.875C197.621 434.602 197.977 437.305 198.562 439.969L341.688 296.828C373.859 265.398 425.148 265.156 457.609 296.258C490.078 327.379 492.027 378.629 462 412.105L400.984 478.75H869.375C895.258 478.75 916.25 457.758 916.25 431.875ZM784.5 478.75C808.656 488.062 779.852 510 877.438 509.195L843.625 510H629.391V509.906H372.344L784.5 478.75ZM41.25 916.25H291.25V791.25H41.25V916.25ZM41.25 791.25H285L304.98 749.172C343.078 688.289 344.594 611.391 308.938 549.062C305.562 543.164 306.391 535.758 310.984 530.75L439.027 391.062C458.121 370.164 457.047 337.855 436.605 318.281C416.156 298.703 383.832 299.023 363.785 318.992L114.797 567.922L92.7031 545.828L150.516 488.016L134.484 481.766C94.2578 466.246 74.2109 421.074 89.6875 380.824L142.574 243.496L91.957 294.219C59.6133 326.555 41.375 370.375 41.25 416.113V791.25Z" fill="black"/>
<path d="M877.438 509.195C917.133 505.148 947.379 471.777 947.5 431.875V88.125C947.445 45 912.5 10.0547 869.375 10H244.375C201.25 10.0547 166.305 45 166.25 88.125V175.531L69.8633 272.09C31.6602 310.305 10.1484 362.078 10 416.113V931.875C10 940.508 16.9922 947.5 25.625 947.5H306.875C315.508 947.5 322.5 940.508 322.5 931.875V780.094L331.477 765.738C369.07 705.648 376.844 584.199 351.5 518L789.547 510C843.625 510 843.625 510 843.625 510M877.438 509.195L843.625 510M877.438 509.195C779.852 510 808.656 488.062 784.5 478.75L372.344 509.906H629.391V510H843.625M843.625 510H716.078M41.25 791.25H291.25V916.25H41.25V791.25ZM41.25 791.25H285L304.98 749.172C343.078 688.289 344.594 611.391 308.938 549.062C305.562 543.164 306.391 535.758 310.984 530.75L439.027 391.062C458.121 370.164 457.047 337.855 436.605 318.281C416.156 298.703 383.832 299.023 363.785 318.992L114.797 567.922L92.7031 545.828L150.516 488.016L134.484 481.766C94.2578 466.246 74.2109 421.074 89.6875 380.824L142.574 243.496L91.957 294.219C59.6133 326.555 41.375 370.375 41.25 416.113V791.25ZM166.25 268.977L118.828 392.078C109.535 416.242 121.578 443.355 145.738 452.656L172.844 463.125C168.516 453.273 166.273 442.625 166.25 431.875V268.977ZM916.25 431.875V88.125C916.25 62.2422 895.258 41.25 869.375 41.25H244.375C218.492 41.25 197.5 62.2422 197.5 88.125V187.438H197.637L197.5 187.793V431.875C197.621 434.602 197.977 437.305 198.562 439.969L341.688 296.828C373.859 265.398 425.148 265.156 457.609 296.258C490.078 327.379 492.027 378.629 462 412.105L400.984 478.75H869.375C895.258 478.75 916.25 457.758 916.25 431.875Z" stroke="black" stroke-width="20"/>
<line x1="187.798" y1="203" x2="928.798" y2="200" stroke="black" stroke-width="100"/>
</svg>
