<svg width="785" height="675" viewBox="0 0 785 675" fill="none" xmlns="http://www.w3.org/2000/svg">
<rect x="35" y="281" width="642" height="359" stroke="#67C462" stroke-width="70"/>
<path d="M697.171 115.722C676.172 113.789 651.426 112.813 629.61 112.352C614.691 112.036 601.259 111.962 591.52 111.976C586.651 111.984 582.712 112.013 579.978 112.045C578.609 112.061 577.552 112.077 576.836 112.092C576.629 112.096 576.458 112.1 576.319 112.103C439.527 137.167 343.587 260.854 360.812 387.105C362.889 402.325 363.995 410.439 364.47 413.922L364.61 414.955L364.713 415.707L364.748 415.969C364.755 416.017 364.753 416.003 364.749 415.976L364.757 416.032L364.764 416.085L364.769 416.124C364.772 416.152 364.789 416.301 364.8 416.424C360.966 421.247 356.397 420.999 353.343 419.987C353.299 420.116 353.254 420.246 353.207 420.372C353.129 420.583 352.943 421.075 352.646 421.619C352.515 421.858 352.175 422.462 351.594 423.106L351.583 423.119C351.265 423.471 349.344 425.606 345.988 425.606C345.013 425.606 343.352 425.758 340.816 425.989C340.473 426.02 340.114 426.053 339.738 426.087C336.849 426.349 333.322 426.646 329.897 426.696C326.605 426.744 322.741 426.584 319.4 425.616C316.282 424.711 310.924 422.198 310.057 415.846L310.057 415.845C299.948 341.741 302.431 267.319 327.543 207.553C352.861 147.293 401.036 102.394 480.65 87.9642L480.65 87.9657C481.328 87.8452 482.453 87.7101 483.432 87.5926L483.573 87.5757C485.078 87.3948 487.207 87.1479 489.878 86.8468C495.224 86.2445 502.777 85.4216 511.925 84.4708C530.221 82.5693 554.927 80.1533 581.155 77.9637C607.372 75.775 635.168 73.8078 659.626 72.8103C674.813 72.191 688.924 71.9345 700.645 72.2637L677.414 44.8908C670.066 36.2326 670.182 22.7152 677.724 14.2205L677.728 14.2167C685.835 5.09862 699.271 5.30752 707.138 14.5777L697.171 115.722ZM697.171 115.722L662.535 136.289L662.529 136.292C652.565 142.221 649.431 155.406 654.01 165.654C658.8 176.399 671.195 181.683 681.876 175.42L681.894 175.41L681.912 175.399L766.412 125.224L766.442 125.206L766.472 125.188C768.226 124.124 769.763 122.827 771.086 121.378L771.492 120.973L771.72 120.63C773.318 118.691 774.376 116.595 775.126 114.76C775.472 113.93 775.702 113.155 775.826 112.736C775.835 112.706 775.843 112.678 775.851 112.652C776.372 110.931 776.699 109.144 776.814 107.292C776.818 107.244 776.82 107.228 776.824 107.202C776.829 107.157 776.838 107.082 776.868 106.763C776.893 106.503 776.924 106.126 776.932 105.677C776.942 105.58 776.953 105.46 776.962 105.329C776.981 105.057 776.995 104.685 776.973 104.247L776.971 104.22L776.97 104.193C776.843 102.027 776.416 99.9582 775.772 98.0364C775.643 97.6332 775.503 97.3029 775.389 97.0587C775.364 97.0054 775.339 96.9541 775.315 96.9055C774.567 95.0059 773.596 93.3468 772.539 91.8933C772.363 91.5694 772.086 91.1067 771.678 90.6064L771.63 90.5478L771.581 90.4901L707.139 14.5794L697.171 115.722ZM349.889 418.019L349.889 418.024L349.889 418.019Z" fill="#67C462" stroke="#67C462" stroke-width="15"/>
</svg>
