<svg width="1000" height="901" viewBox="0 0 1000 901" fill="none" xmlns="http://www.w3.org/2000/svg">
<mask id="mask0" mask-type="alpha" maskUnits="userSpaceOnUse" x="0" y="0" width="1000" height="901">
<path d="M150 800.429C122.45 800.429 100 778.029 100 750.429V290.529C117.3 296.929 136 300.429 155.35 300.429H900V400.429H800C739.7 400.429 650 440.379 650 550.429C650 660.479 739.7 700.429 800 700.429H900V800.429H150ZM111.9 118.079C121.4 106.879 135.3 100.429 150 100.429H800V200.429H155.35C128.5 200.429 104.5 182.329 100.7 159.229C98.25 144.029 102.2 129.429 111.9 118.079ZM900 600.429H800.6C777.5 599.829 750 590.729 750 550.429C750 510.129 777.5 501.029 800 500.429H900V600.429ZM950 200.429H900V50.4286C900 22.7786 877.6 0.428589 850 0.428589H150C105.95 0.428589 64.3 19.6786 35.7 53.2786C13 79.9786 0.6 113.529 0.05 148.229C0 148.979 0 149.679 0 150.429V750.429C0 833.129 67.3 900.429 150 900.429H950C977.6 900.429 1000 878.078 1000 850.428V250.429C1000 222.779 977.6 200.429 950 200.429Z" fill="white"/>
</mask>
<g mask="url(#mask0)">
<path d="M150 800.429C122.45 800.429 100 778.029 100 750.429V290.529C117.3 296.929 136 300.429 155.35 300.429H900V400.429H800C739.7 400.429 650 440.379 650 550.429C650 660.479 739.7 700.429 800 700.429H900V800.429H150ZM111.9 118.079C121.4 106.879 135.3 100.429 150 100.429H800V200.429H155.35C128.5 200.429 104.5 182.329 100.7 159.229C98.25 144.029 102.2 129.429 111.9 118.079ZM900 600.429H800.6C777.5 599.829 750 590.729 750 550.429C750 510.129 777.5 501.029 800 500.429H900V600.429ZM950 200.429H900V50.4286C900 22.7786 877.6 0.428589 850 0.428589H150C105.95 0.428589 64.3 19.6786 35.7 53.2786C13 79.9786 0.6 113.529 0.05 148.229C0 148.979 0 149.679 0 150.429V750.429C0 833.129 67.3 900.429 150 900.429H950C977.6 900.429 1000 878.078 1000 850.428V250.429C1000 222.779 977.6 200.429 950 200.429Z" fill="#67C462"/>
</g>
</svg>
